<svg version="1.1" id="Layer_1" xmlns="http://www.w3.org/2000/svg" xmlns:xlink="http://www.w3.org/1999/xlink" x="0px" y="0px"
	 viewBox="-20 -20 340 420" style="enable-background:new 0 0 299.33 384.51;" xml:space="preserve">
<style type="text/css">
	.st0 {
		fill:#FFFFFF;
		stroke:#FFFFFF;
		stroke-width:8;
		stroke-miterlimit:10;
	}
	.st1 {
		fill:#FFFFFF;
	}
</style>

<g class="robot levitate">
	<path class="st0" d="M296.08,164.83"/>
	<path class="st1" d="M181.06,144.34h-66.63c-2.17,0-3.93-1.76-3.93-3.93v-3.26c0-2.17,1.76-3.93,3.93-3.93h66.63
		c2.17,0,3.93,1.76,3.93,3.93v3.26C184.99,142.58,183.23,144.34,181.06,144.34z"/>
	<g>
		<g>
			<path class="st1 leftLeg" d="M125.28,345.92H112.7c-3.58,0-6.49-2.91-6.49-6.49v-45.4c0-3.58,2.91-6.49,6.49-6.49h12.58
				c3.58,0,6.49,2.9,6.49,6.49v45.4C131.76,343.02,128.86,345.92,125.28,345.92z"/>
			<path class="st1 leftFoot" d="M104.66,374.16l7.53,7.53c3.76,3.76,9.85,3.76,13.61,0l7.53-7.53c3.76-3.76,3.76-9.85,0-13.61l-7.53-7.53
				c-3.76-3.76-9.85-3.76-13.61,0l-7.53,7.53C100.9,364.31,100.9,370.4,104.66,374.16z"/>
		</g>
		<g>
			<path class="st1 rightLeg" d="M182.79,345.92h-12.58c-3.58,0-6.49-2.91-6.49-6.49v-45.4c0-3.58,2.91-6.49,6.49-6.49h12.58
				c3.58,0,6.49,2.9,6.49,6.49v45.4C189.28,343.02,186.38,345.92,182.79,345.92z"/>
			<path class="st1 rightFoot" d="M162.17,372.87l7.53,7.53c3.76,3.76,9.85,3.76,13.61,0l7.53-7.53c3.76-3.76,3.76-9.85,0-13.61l-7.53-7.53
				c-3.76-3.76-9.85-3.76-13.61,0l-7.53,7.53C158.41,363.01,158.41,369.11,162.17,372.87z"/>
		</g>
	</g>
	<path class="st1 torso" d="M210.67,281.78H84.82c-7.28,0-13.19-5.9-13.19-13.19V163.57c0-7.28,5.9-13.19,13.19-13.19h125.85
		c7.28,0,13.19,5.9,13.19,13.19v105.02C223.86,275.87,217.95,281.78,210.67,281.78z"/>
	<path class="st1 rightArm" d="M279.91,269.08l-7.44,3.22c-4.82,2.08-10.41-0.13-12.49-4.94l-30.99-71.57c-2.08-4.82,0.13-10.41,4.94-12.49
		l7.44-3.22c4.82-2.08,10.41,0.13,12.49,4.94l30.99,71.57C286.94,261.4,284.73,266.99,279.91,269.08z"/>
	<path class="st1 leftArm" d="M28.16,273.89l-7.63-2.73c-4.94-1.77-7.51-7.21-5.75-12.15l26.27-73.43c1.77-4.94,7.21-7.51,12.15-5.75
		l7.63,2.73c4.94,1.77,7.51,7.21,5.75,12.15l-26.27,73.43C38.54,273.09,33.1,275.66,28.16,273.89z"/>

		<g class="rightFingers">
			<path class="st1" d="M275.86,260.76L275.86,260.76c-1.64,2.4-1.02,5.67,1.37,7.31l13.87,9.48c2.4,1.64,5.67,1.02,7.31-1.37l0,0
				c1.64-2.4,1.02-5.67-1.37-7.31l-13.87-9.48C280.77,257.75,277.5,258.37,275.86,260.76z"/>
			<path class="st1" d="M271.18,262.79L271.18,262.79c-2.9,0-5.26,2.35-5.26,5.26v16.8c0,2.9,2.35,5.26,5.26,5.26l0,0
				c2.9,0,5.26-2.35,5.26-5.26v-16.8C276.44,265.14,274.09,262.79,271.18,262.79z"/>
		</g>

		<g class="leftFingers">
			<path class="st1" d="M28.21,268.21L28.21,268.21c-2.9-0.14-5.36,2.11-5.5,5.01l-0.78,16.78c-0.14,2.9,2.11,5.36,5.01,5.5h0
				c2.9,0.14,5.36-2.11,5.5-5.01l0.78-16.78C33.35,270.8,31.11,268.34,28.21,268.21z"/>
			<path class="st1" d="M24.03,265.29L24.03,265.29c-1.52-2.47-4.76-3.24-7.23-1.71l-14.3,8.82c-2.47,1.52-3.24,4.76-1.71,7.23h0
				c1.52,2.47,4.76,3.24,7.23,1.71l14.3-8.82C24.78,271,25.55,267.76,24.03,265.29z"/>
		</g>


	<path class="st1 head" d="M239.83,41.63H55.66c-9.44,0-17.1,7.66-17.1,17.1v51.95c0,9.44,7.66,17.1,17.1,17.1h184.16
		c9.44,0,17.1-7.66,17.1-17.1V58.73C256.92,49.28,249.27,41.63,239.83,41.63z M100.58,97.48c-7.06,0-12.78-5.72-12.78-12.78
		s5.72-12.78,12.78-12.78c7.06,0,12.78,5.72,12.78,12.78S107.63,97.48,100.58,97.48z M148.33,103.53c-10.4,0-18.83-8.43-18.83-18.83
		s8.43-18.83,18.83-18.83s18.83,8.43,18.83,18.83S158.73,103.53,148.33,103.53z M194.91,97.48c-7.06,0-12.78-5.72-12.78-12.78
		s5.72-12.78,12.78-12.78c7.06,0,12.78,5.72,12.78,12.78S201.97,97.48,194.91,97.48z"/>

			<ellipse transform="matrix(0.2773 -0.9608 0.9608 0.2773 6.834 209.5192)" class="st1" cx="200" cy="27.1" rx="8.14" ry="28.1"/>
			<ellipse transform="matrix(0.2773 -0.9608 0.9608 0.2773 6.834 209.5192)" class="st1" cx="200" cy="27.1" rx="28.1" ry="8.14"/>

	</g>

</svg>
