<svg version="1.1" id="Layer_1" xmlns="http://www.w3.org/2000/svg" xmlns:xlink="http://www.w3.org/1999/xlink" x="0px" y="0px"
	 viewBox="0 0 300.68 557.28" style="enable-background:new 0 0 300.68 557.28;" xml:space="preserve">
<style type="text/css">
	.st0{fill:#FFFFFF;}
	.st1{fill:#FFFFFF;stroke:#FFFFFF;stroke-width:8;stroke-miterlimit:10;}
</style>
<rect x="103.31" y="203.04" class="st0" width="74.49" height="18.12"/>
<path class="st0 zorbLeftArm" d="M21.61,391.63H13.5c-5.25,0-9.5-4.25-9.5-9.5V246.67c0-5.25,4.25-9.5,9.5-9.5h8.11c5.25,0,9.5,4.25,9.5,9.5
	v135.46C31.11,387.38,26.86,391.63,21.61,391.63z"/>
<path class="st0 zorbRightArm" d="M271.31,333.03l-7.96,1.55c-5.15,1-10.14-2.36-11.14-7.51l-14.89-76.56c-1-5.15,2.36-10.14,7.51-11.14
	l7.96-1.55c5.15-1,10.14,2.36,11.14,7.51l14.89,76.56C279.82,327.04,276.46,332.03,271.31,333.03z"/>
<path class="st1" d="M288.89,234.67"/>
<rect x="31.11" y="259.5" class="st0 zorbLeftShoulder" width="28.09" height="25.56"/>
<rect x="162.73" y="357.38" class="st0 zorbRightLeg" width="25.56" height="134.01"/>
<path class="st0 zorbRightFoot" d="M159.63,553.28h35.75c5.32,0,9.62-4.31,9.62-9.62v-35.75c0-5.32-4.31-9.62-9.62-9.62h-35.75
	c-5.32,0-9.62,4.31-9.62,9.62v35.75C150.01,548.97,154.31,553.28,159.63,553.28z"/>
<rect x="92.82" y="357.38" class="st0 zorbLeftLeg" width="25.56" height="134.01"/>
<path class="st0 zorbLeftFoot" d="M85.73,553.28h35.75c5.32,0,9.62-4.31,9.62-9.62v-35.75c0-5.32-4.31-9.62-9.62-9.62H85.73
	c-5.32,0-9.62,4.31-9.62,9.62v35.75C76.1,548.97,80.41,553.28,85.73,553.28z"/>
<path class="st0 zorbHead" d="M174.99,197.33h-68.88c-17.39,0-31.48-14.1-31.48-31.48V35.48C74.63,18.1,88.73,4,106.11,4h68.88
	c17.39,0,31.48,14.1,31.48,31.48v130.37C206.48,183.24,192.38,197.33,174.99,197.33z M108.82,70.79c-8.25,0-14.94,6.69-14.94,14.94
	s6.69,14.94,14.94,14.94s14.94-6.69,14.94-14.94S117.07,70.79,108.82,70.79z M168.92,66.91c-10.4,0-18.82,8.43-18.82,18.82
	s8.43,18.82,18.82,18.82c10.4,0,18.82-8.43,18.82-18.82S179.32,66.91,168.92,66.91z M115.21,141.92v9.83c0,1.8,1.46,3.26,3.26,3.26
	h44.16c1.8,0,3.26-1.46,3.26-3.26v-9.83c0-1.8-1.46-3.26-3.26-3.26h-44.16C116.67,138.66,115.21,140.12,115.21,141.92z"/>
<path class="st0 zorbTorso" d="M203.48,351.61H77.63c-7.28,0-13.19-5.9-13.19-13.19V233.41c0-7.28,5.9-13.19,13.19-13.19h125.85
	c7.28,0,13.19,5.9,13.19,13.19v105.02C216.67,345.71,210.76,351.61,203.48,351.61z M109.85,297.44v-4.32H98.71l10.9-14.81v-3.94
	H92.27v4.32h10.9l-10.9,14.77v3.98H109.85z M126.63,297.85c6.99,0,12.07-4.98,12.07-11.93c0-6.95-5.09-11.94-12.07-11.94
	c-6.95,0-12.04,4.98-12.04,11.94C114.59,292.87,119.68,297.85,126.63,297.85z M126.63,293.49c-4.26,0-6.99-3.29-6.99-7.58
	c0-4.32,2.73-7.58,6.99-7.58c4.26,0,7.02,3.25,7.02,7.58C133.65,290.21,130.88,293.49,126.63,293.49z M163.44,297.44l-5.19-8.79
	c2.49-0.59,5.05-2.77,5.05-6.85c0-4.29-2.94-7.44-7.75-7.44h-10.79v23.07h4.91v-8.2h3.6l4.53,8.2H163.44z M154.83,284.92h-5.15
	v-6.23h5.15c1.97,0,3.46,1.18,3.46,3.11C158.29,283.74,156.8,284.92,154.83,284.92z M182.12,297.44c4.39,0,6.71-2.77,6.71-6.23
	c0-2.91-1.97-5.29-4.43-5.67c2.18-0.45,3.98-2.39,3.98-5.29c0-3.08-2.25-5.88-6.64-5.88H169.6v23.07H182.12z M180.67,283.6h-6.16
	v-5.02h6.16c1.66,0,2.7,1.07,2.7,2.53C183.37,282.56,182.33,283.6,180.67,283.6z M180.84,293.18h-6.33v-5.36h6.33
	c1.94,0,2.97,1.25,2.97,2.7C183.82,292.18,182.71,293.18,180.84,293.18z"/>
<text transform="matrix(1 0 0 1 -366.9135 -44.2594)" style="fill:#706F6F; font-family:'ProximaNova-Bold'; font-size:26.8726px; letter-spacing:2;">ZORB</text>
<path class="st0 zorbRightHand" d="M253.89,320.73l4.57-6.69c2.96-4.33,8.87-5.45,13.21-2.48l23.45,16.02c4.33,2.96,5.45,8.87,2.48,13.21
	l-4.57,6.69c-2.96,4.33-8.87,5.45-13.21,2.48l-23.45-16.02C252.05,330.97,250.93,325.06,253.89,320.73z"/>
<rect x="221.91" y="259.49" transform="matrix(-1 -4.487844e-11 4.487844e-11 -1 471.9085 544.5447)" class="st0 zorbRightShoulder" width="28.09" height="25.56"/>
</svg>
